<svg width="60" height="60" viewBox="0 0 60 60" xmlns="http://www.w3.org/2000/svg" xmlns:xlink="http://www.w3.org/1999/xlink"><title>shuttle</title><defs><circle id="a" cx="30" cy="15" r="4"/></defs><g fill="none" fill-rule="evenodd"><path d="M40 24c4.81 6.381 7.143 11.715 7 16-.143 4.285-3.476 5.285-10 3M20.006 24c-4.81 6.381-7.143 11.715-7 16 .143 4.285 3.476 5.285 10 3" stroke="#002C4B" stroke-width="2" fill="#6CC7FF"/><path d="M30 3c-7 0-11 21-11 27s1 15 11 15 11-9 11-15S37 3 30 3z" stroke="#002C4B" stroke-width="2" fill="#FFF"/><use fill="#6CC7FF" xlink:href="#a"/><circle stroke="#002C4B" stroke-width="2" cx="30" cy="15" r="3"/><path d="M31 48c-2 0-4 1-4 4s3 7 4 7 4-4 4-7-2-4-4-4z" stroke="#002C4B" stroke-width="2" fill="#6CC7FF"/></g></svg>